<svg width="75" height="75" viewBox="0 0 75 75" fill="none" xmlns="http://www.w3.org/2000/svg">
<path d="M24.2073 15.9836C24.2073 20.7268 20.4097 24.4672 15.8537 24.4672C11.2977 24.4672 7.5 20.7268 7.5 15.9836C7.5 11.2404 11.2977 7.5 15.8537 7.5C20.4097 7.5 24.2073 11.2404 24.2073 15.9836Z" fill="#C84C2B" stroke="#C84C2B" stroke-width="15"/>
<path d="M67.5 15.9836C67.5 20.7268 63.7023 24.4672 59.1463 24.4672C54.5903 24.4672 50.7927 20.7268 50.7927 15.9836C50.7927 11.2404 54.5903 7.5 59.1463 7.5C63.7023 7.5 67.5 11.2404 67.5 15.9836Z" fill="#C84C2B" stroke="#C84C2B" stroke-width="15"/>
<path d="M24.2073 59.0164C24.2073 63.7597 20.4097 67.5001 15.8537 67.5001C11.2977 67.5001 7.5 63.7597 7.5 59.0164C7.5 54.2732 11.2977 50.5328 15.8537 50.5328C20.4097 50.5328 24.2073 54.2732 24.2073 59.0164Z" fill="#C84C2B" stroke="#C84C2B" stroke-width="15"/>
<path d="M67.5 59.0164C67.5 63.7597 63.7023 67.5001 59.1463 67.5001C54.5903 67.5001 50.7927 63.7597 50.7927 59.0164C50.7927 54.2732 54.5903 50.5328 59.1463 50.5328C63.7023 50.5328 67.5 54.2732 67.5 59.0164Z" fill="#C84C2B" stroke="#C84C2B" stroke-width="15"/>
</svg>
